<?xml version="1.0" encoding="utf-8"?><svg viewBox="0 0 32 28" xmlns="http://www.w3.org/2000/svg" xmlns:xlink="http://www.w3.org/1999/xlink"><style>:root>svg{display:none}:root>svg:target{display:block}</style><svg viewBox="0 0 14 28" id="bolt1" xmlns="http://www.w3.org/2000/svg"><path d="M13.828 8.844a.62.62 0 01.109.688L5.5 27.61a.745.745 0 01-.656.391c-.063 0-.141-.016-.219-.031-.344-.109-.547-.438-.469-.766l3.078-12.625L.89 16.157c-.063.016-.125.016-.187.016a.765.765 0 01-.484-.172.614.614 0 01-.203-.609L3.157 2.501c.078-.297.359-.5.688-.5H8.97c.391 0 .703.297.703.656a.634.634 0 01-.078.281l-2.672 7.234 6.188-1.531a.77.77 0 01.187-.031.76.76 0 01.531.234z"/></svg><svg viewBox="0 0 19 28" id="chevron-right" xmlns="http://www.w3.org/2000/svg"><path d="M17.297 13.703L5.703 25.297a.99.99 0 01-1.406 0l-2.594-2.594a.99.99 0 010-1.406L10 13 1.703 4.703a.99.99 0 010-1.406L4.297.703a.99.99 0 011.406 0l11.594 11.594a.99.99 0 010 1.406z"/></svg><svg viewBox="0 0 24 28" id="facebook-official" xmlns="http://www.w3.org/2000/svg"><path d="M22.672 2C23.406 2 24 2.594 24 3.328v21.344c0 .734-.594 1.328-1.328 1.328h-6.109v-9.297h3.109l.469-3.625h-3.578v-2.312c0-1.047.281-1.75 1.797-1.75L20.266 9V5.766c-.328-.047-1.469-.141-2.781-.141-2.766 0-4.672 1.687-4.672 4.781v2.672H9.688v3.625h3.125V26H1.329a1.327 1.327 0 01-1.328-1.328V3.328C.001 2.594.595 2 1.329 2h21.344z"/></svg><svg viewBox="0 0 24 28" id="facebook-square" xmlns="http://www.w3.org/2000/svg"><path d="M19.5 2C21.984 2 24 4.016 24 6.5v15c0 2.484-2.016 4.5-4.5 4.5h-2.938v-9.297h3.109l.469-3.625h-3.578v-2.312c0-1.047.281-1.75 1.797-1.75L20.265 9V5.766c-.328-.047-1.469-.141-2.781-.141-2.766 0-4.672 1.687-4.672 4.781v2.672H9.687v3.625h3.125V26H4.499a4.502 4.502 0 01-4.5-4.5v-15c0-2.484 2.016-4.5 4.5-4.5h15z"/></svg><svg viewBox="0 0 24 28" id="gift" xmlns="http://www.w3.org/2000/svg"><path d="M14.5 21.187V9.999h-5v11.188c0 .547.453.812 1 .812h3c.547 0 1-.266 1-.812zM7.375 8h3.047L8.453 5.484A1.432 1.432 0 007.375 5a1.5 1.5 0 000 3zm10.75-1.5a1.5 1.5 0 00-1.5-1.5c-.531 0-.906.281-1.078.484L13.594 8h3.031a1.5 1.5 0 001.5-1.5zm5.875 4v5c0 .281-.219.5-.5.5H22v6.5a1.5 1.5 0 01-1.5 1.5h-17A1.5 1.5 0 012 22.5V16H.5a.494.494 0 01-.5-.5v-5c0-.281.219-.5.5-.5h6.875c-1.937 0-3.5-1.563-3.5-3.5S5.438 3 7.375 3C8.422 3 9.391 3.438 10 4.203l2 2.578 2-2.578C14.609 3.437 15.578 3 16.625 3c1.937 0 3.5 1.563 3.5 3.5s-1.563 3.5-3.5 3.5H23.5c.281 0 .5.219.5.5z"/></svg><svg viewBox="0 0 28 28" id="heart-o" xmlns="http://www.w3.org/2000/svg"><path d="M26 9.312c0-4.391-2.969-5.313-5.469-5.313-2.328 0-4.953 2.516-5.766 3.484-.375.453-1.156.453-1.531 0-.812-.969-3.437-3.484-5.766-3.484-2.5 0-5.469.922-5.469 5.313 0 2.859 2.891 5.516 2.922 5.547l9.078 8.75 9.063-8.734C23.109 14.828 26 12.172 26 9.312zm2 0c0 3.75-3.437 6.891-3.578 7.031l-9.734 9.375c-.187.187-.438.281-.688.281s-.5-.094-.688-.281l-9.75-9.406c-.125-.109-3.563-3.25-3.563-7 0-4.578 2.797-7.313 7.469-7.313 2.734 0 5.297 2.156 6.531 3.375 1.234-1.219 3.797-3.375 6.531-3.375 4.672 0 7.469 2.734 7.469 7.313z"/></svg><svg viewBox="0 0 24 28" id="linkedin" xmlns="http://www.w3.org/2000/svg"><path d="M5.453 9.766V25.25H.297V9.766h5.156zm.328-4.782c.016 1.484-1.109 2.672-2.906 2.672h-.031C1.11 7.656 0 6.468 0 4.984c0-1.516 1.156-2.672 2.906-2.672 1.766 0 2.859 1.156 2.875 2.672zM24 16.375v8.875h-5.141v-8.281c0-2.078-.75-3.5-2.609-3.5-1.422 0-2.266.953-2.641 1.875-.125.344-.172.797-.172 1.266v8.641H8.296c.063-14.031 0-15.484 0-15.484h5.141v2.25h-.031c.672-1.062 1.891-2.609 4.672-2.609 3.391 0 5.922 2.219 5.922 6.969z"/></svg><svg viewBox="0 0 24 28" id="linkedin-square" xmlns="http://www.w3.org/2000/svg"><path d="M3.703 22.094h3.609V11.25H3.703v10.844zM7.547 7.906c-.016-1.062-.781-1.875-2.016-1.875s-2.047.812-2.047 1.875c0 1.031.781 1.875 2 1.875H5.5c1.266 0 2.047-.844 2.047-1.875zm9.141 14.188h3.609v-6.219c0-3.328-1.781-4.875-4.156-4.875-1.937 0-2.797 1.078-3.266 1.828h.031V11.25H9.297s.047 1.016 0 10.844h3.609v-6.062c0-.313.016-.641.109-.875.266-.641.859-1.313 1.859-1.313 1.297 0 1.813.984 1.813 2.453v5.797zM24 6.5v15c0 2.484-2.016 4.5-4.5 4.5h-15A4.502 4.502 0 010 21.5v-15C0 4.016 2.016 2 4.5 2h15C21.984 2 24 4.016 24 6.5z"/></svg><svg viewBox="0 0 22 28" id="location-arrow" xmlns="http://www.w3.org/2000/svg"><path d="M21.891 5.453l-10 20A.987.987 0 0111 26c-.078 0-.156-.016-.234-.031A.987.987 0 0110 25v-9H1c-.469 0-.859-.313-.969-.766s.109-.922.516-1.125l20-10A.927.927 0 0121 4c.266 0 .516.094.703.297a.969.969 0 01.187 1.156z"/></svg><svg viewBox="0 0 18 28" id="lock" xmlns="http://www.w3.org/2000/svg"><path d="M5 12h8V9c0-2.203-1.797-4-4-4S5 6.797 5 9v3zm13 1.5v9a1.5 1.5 0 01-1.5 1.5h-15A1.5 1.5 0 010 22.5v-9A1.5 1.5 0 011.5 12H2V9c0-3.844 3.156-7 7-7s7 3.156 7 7v3h.5a1.5 1.5 0 011.5 1.5z"/></svg><svg viewBox="0 0 16 28" id="map-marker" xmlns="http://www.w3.org/2000/svg"><path d="M12 10c0-2.203-1.797-4-4-4s-4 1.797-4 4 1.797 4 4 4 4-1.797 4-4zm4 0c0 .953-.109 1.937-.516 2.797L9.796 24.891C9.468 25.579 8.749 26 7.999 26s-1.469-.422-1.781-1.109L.515 12.797C.109 11.938-.001 10.953-.001 10c0-4.422 3.578-8 8-8s8 3.578 8 8z"/></svg><svg viewBox="0 0 22 28" id="phone" xmlns="http://www.w3.org/2000/svg"><path d="M22 19.375c0 .562-.25 1.656-.484 2.172-.328.766-1.203 1.266-1.906 1.656-.922.5-1.859.797-2.906.797-1.453 0-2.766-.594-4.094-1.078a14.627 14.627 0 01-2.734-1.297c-2.656-1.641-5.859-4.844-7.5-7.5a14.627 14.627 0 01-1.297-2.734C.595 10.063.001 8.75.001 7.297c0-1.047.297-1.984.797-2.906.391-.703.891-1.578 1.656-1.906.516-.234 1.609-.484 2.172-.484.109 0 .219 0 .328.047.328.109.672.875.828 1.188.5.891.984 1.797 1.5 2.672.25.406.719.906.719 1.391 0 .953-2.828 2.344-2.828 3.187 0 .422.391.969.609 1.344 1.578 2.844 3.547 4.813 6.391 6.391.375.219.922.609 1.344.609.844 0 2.234-2.828 3.187-2.828.484 0 .984.469 1.391.719.875.516 1.781 1 2.672 1.5.313.156 1.078.5 1.188.828.047.109.047.219.047.328z"/></svg><svg viewBox="0 0 24 28" id="pinterest" xmlns="http://www.w3.org/2000/svg"><path d="M24 14c0 6.625-5.375 12-12 12-1.188 0-2.312-.172-3.406-.5.453-.719.969-1.641 1.219-2.562 0 0 .141-.531.844-3.297.406.797 1.625 1.5 2.922 1.5 3.859 0 6.484-3.516 6.484-8.234 0-3.547-3.016-6.875-7.609-6.875-5.688 0-8.563 4.094-8.563 7.5 0 2.063.781 3.906 2.453 4.594.266.109.516 0 .594-.313.063-.203.187-.734.25-.953.078-.313.047-.406-.172-.672-.484-.578-.797-1.313-.797-2.359 0-3.031 2.266-5.75 5.906-5.75 3.219 0 5 1.969 5 4.609 0 3.453-1.531 6.375-3.813 6.375-1.25 0-2.188-1.031-1.891-2.312.359-1.516 1.062-3.156 1.062-4.25 0-.984-.531-1.813-1.625-1.813-1.281 0-2.312 1.328-2.312 3.109 0 0 0 1.141.391 1.906-1.313 5.563-1.547 6.531-1.547 6.531-.219.906-.234 1.922-.203 2.766A12.002 12.002 0 010 14C0 7.375 5.375 2 12 2s12 5.375 12 12z"/></svg><svg viewBox="0 0 32 28" id="shopping-basket" xmlns="http://www.w3.org/2000/svg"><path d="M30 12c1.109 0 2 .891 2 2s-.891 2-2 2h-.234l-1.797 10.344c-.172.953-1 1.656-1.969 1.656H6a2.009 2.009 0 01-1.969-1.656L2.234 16H2c-1.109 0-2-.891-2-2s.891-2 2-2h28zM7.578 24.5a1.01 1.01 0 00.922-1.078l-.5-6.5c-.047-.547-.531-.969-1.078-.922s-.969.531-.922 1.078l.5 6.5c.047.516.484.922 1 .922h.078zm6.422-1V17c0-.547-.453-1-1-1s-1 .453-1 1v6.5c0 .547.453 1 1 1s1-.453 1-1zm6 0V17c0-.547-.453-1-1-1s-1 .453-1 1v6.5c0 .547.453 1 1 1s1-.453 1-1zm5.5.078l.5-6.5c.047-.547-.375-1.031-.922-1.078s-1.031.375-1.078.922l-.5 6.5a1.01 1.01 0 00.922 1.078h.078c.516 0 .953-.406 1-.922zM7.438 4.562L5.985 11H3.922L5.5 4.109A3.966 3.966 0 019.391 1H12c0-.547.453-1 1-1h6c.547 0 1 .453 1 1h2.609A3.966 3.966 0 0126.5 4.109L28.078 11h-2.063l-1.453-6.438a2.004 2.004 0 00-1.953-1.563H20c0 .547-.453 1-1 1h-6c-.547 0-1-.453-1-1H9.391c-.938 0-1.734.641-1.953 1.563z"/></svg><svg viewBox="0 0 26 28" id="shopping-cart" xmlns="http://www.w3.org/2000/svg"><path d="M10 24c0 1.094-.906 2-2 2s-2-.906-2-2 .906-2 2-2 2 .906 2 2zm14 0c0 1.094-.906 2-2 2s-2-.906-2-2 .906-2 2-2 2 .906 2 2zm2-17v8c0 .5-.391.938-.891 1L8.797 17.906c.078.359.203.719.203 1.094 0 .359-.219.688-.375 1H23c.547 0 1 .453 1 1s-.453 1-1 1H7c-.547 0-1-.453-1-1 0-.484.703-1.656.953-2.141L4.187 6H1c-.547 0-1-.453-1-1s.453-1 1-1h4c1.047 0 1.078 1.25 1.234 2H25c.547 0 1 .453 1 1z"/></svg><svg viewBox="0 0 24 28" id="twitter-square" xmlns="http://www.w3.org/2000/svg"><path d="M20 9.531a6.887 6.887 0 01-1.891.531 3.313 3.313 0 001.453-1.828 6.547 6.547 0 01-2.094.797A3.253 3.253 0 0015.077 8a3.28 3.28 0 00-3.281 3.281c0 .25.016.516.078.75a9.324 9.324 0 01-6.781-3.437 3.33 3.33 0 00-.453 1.656c0 1.141.531 2.141 1.422 2.734-.547-.016-1.062-.172-1.563-.406v.031c0 1.594 1.203 2.922 2.703 3.219-.281.078-.5.125-.797.125-.203 0-.406-.031-.609-.063a3.3 3.3 0 003.063 2.281A6.607 6.607 0 014 19.53a9.351 9.351 0 005.031 1.469c6.031 0 9.344-5 9.344-9.344 0-.141 0-.281-.016-.422A6.31 6.31 0 0020 9.53zM24 6.5v15c0 2.484-2.016 4.5-4.5 4.5h-15A4.502 4.502 0 010 21.5v-15C0 4.016 2.016 2 4.5 2h15C21.984 2 24 4.016 24 6.5z"/></svg><svg viewBox="0 0 28 28" id="youtube-play" xmlns="http://www.w3.org/2000/svg"><path d="M11.109 17.625l7.562-3.906-7.562-3.953v7.859zM14 4.156c5.891 0 9.797.281 9.797.281.547.063 1.75.063 2.812 1.188 0 0 .859.844 1.109 2.781.297 2.266.281 4.531.281 4.531v2.125s.016 2.266-.281 4.531c-.25 1.922-1.109 2.781-1.109 2.781-1.062 1.109-2.266 1.109-2.812 1.172 0 0-3.906.297-9.797.297-7.281-.063-9.516-.281-9.516-.281-.625-.109-2.031-.078-3.094-1.188 0 0-.859-.859-1.109-2.781C-.016 17.327 0 15.062 0 15.062v-2.125s-.016-2.266.281-4.531C.531 6.469 1.39 5.625 1.39 5.625 2.452 4.5 3.656 4.5 4.202 4.437c0 0 3.906-.281 9.797-.281z"/></svg></svg>